<svg height="35" width="35" xmlns="http://www.w3.org/2000/svg"><path d="m34.98372258 15.16691348c-.10938423-.67976276-.24220795-1.35171215-.41409747-2.01584817-.21876847-.84384342-.50004223-1.67987348-.84382126-2.48465007-.69537122-1.65643339-1.64857672-3.20347966-2.80492437-4.5786319-1.25010558-1.47672598-2.75804542-2.75030448-4.43006162-3.7269751-1.64857673-.96885726-3.44560349-1.65643338-5.32076184-2.03928827-.96883182-.19533413-1.9454768-.3125346-2.9377481-.32034797-.77350282-.00781336-1.54700564.0234401-2.31269531.09376038-1.99235575.19533413-3.96127203.75008305-5.7739251 1.60173983-1.55481881.73445631-3.00025338 1.68768684-4.28161159 2.82843813s-2.39864006 2.46902334-3.29715344 3.9301226c-.9922713 1.62517992-1.73452148 3.39881378-2.1408058 5.25839465-.32815271 1.48453935-.4844159 3.01595889-.40628431 4.53956506.07031844 1.47672599.29690008 2.95345198.74225019 4.36767104.28127375.89853698.61723962 1.77363386 1.03915025 2.62529064.41409747.83603006.89851338 1.64080665 1.43762141 2.39870306 1.07821606 1.50797945 2.39082691 2.84406486 3.89095359 3.94574933 1.53137933 1.13293792 3.25808765 2.0080348 5.07074073 2.58622381 1.89078468.60162911 3.89876675.88291025 5.88330935.81258996 1.93766363-.06250692 3.85970095-.43754844 5.67235403-1.13293792 1.74233464-.67194939 3.37528504-1.63299329 4.80509329-2.8362515.7188107-.60944247 1.35948981-1.29701859 1.96110311-2.02366153.60942647-.73445632 1.15634766-1.50797945 1.60951093-2.34400951.39065799-.71882958.7188107-1.46891262 1.00008446-2.22680902.14063687-.37504152.27346059-.75008304.38284483-1.14075129.11719739-.41410835.20314215-.84384342.28127375-1.26576513.1171974-.66413603.16407636-1.35171215.10157108-2.02366154-.05469212.29690787-.10157108.58600238-.17188952.87509688-.08594476.3359747-.19532899.66413603-.32033955.98448399-.25002111.67976276-.56254751 1.33608542-.85944758 1.99240808-.38284483.83603005-.82819494 1.63299328-1.31261085 2.40651642-.25002112.39848161-.50785539.78914986-.78912914 1.16419138-.28127376.37504152-.60161331.73445631-.92195286 1.08605774-.64067911.71101622-1.33605033 1.34389878-2.10955316 1.90646106-.78912914.57818901-1.62513724 1.08605774-2.5080243 1.50797945-1.76577412.85947015-3.69562459 1.37515224-5.64891455 1.54704627-2.00016892.17189403-4.03940363-.0234401-5.96144095-.59381574-1.82827939-.53912219-3.56280088-1.41421907-5.08636704-2.56278372-1.47668721-1.1173112-2.75804542-2.49246344-3.76594304-4.04732308-1.05477657-1.58611309-1.78140044-3.37537368-2.17987159-5.24276791-.10157107-.48442863-.17970267-.98448399-.23439479-1.47672599-.04687896-.42192171-.08594476-.85165679-.10157108-1.28139186-.02343948-.88291025.03125264-1.79707395.16407636-2.67217083.28908691-1.92208779.9141397-3.7738553 1.88297151-5.46154214.85944759-1.50797945 1.97672944-2.86750496 3.28934029-4.01606961 1.31261085-1.15637802 2.81273754-2.08616846 4.43787478-2.74249112.93757918-.38285488 1.92203732-.66413602 2.92212177-.85165678.50785539-.09376038 1.01571078-.17189403 1.52356617-.21096086.25002111-.02344009.49222907-.02344009.74225018-.04688019.10157108 0 .20314216.00781337.30471324.00781337 1.69545568-.03125346 3.39872452.18752076 5.0160486.69538948 1.74233464.54693555 3.38309821 1.4298458 4.80509329 2.57841045 1.49231353 1.20325821 2.73460594 2.68779756 3.67218512 4.35985768.7969423 1.42203243 1.36730297 2.95345197 1.711082 4.54737843.0781316.36722815.14063688.73445631.20314216 1.10168446.05469212.3359747.24220795.6485093.53129487.83603006.60942646.40629498 1.46106088.1328272 1.75796096-.52349546.10157107-.22658758.13282371-.4688019.09375791-.69538948z"/></svg>